<?xml version="1.0" encoding="UTF-8" standalone="no"?>
<!-- Created with Inkscape (http://www.inkscape.org/) -->

<svg
   xmlns:dc="http://purl.org/dc/elements/1.1/"
   xmlns:cc="http://creativecommons.org/ns#"
   xmlns:rdf="http://www.w3.org/1999/02/22-rdf-syntax-ns#"
   xmlns:svg="http://www.w3.org/2000/svg"
   xmlns="http://www.w3.org/2000/svg"
   xmlns:xlink="http://www.w3.org/1999/xlink"
   xmlns:sodipodi="http://sodipodi.sourceforge.net/DTD/sodipodi-0.dtd"
   xmlns:inkscape="http://www.inkscape.org/namespaces/inkscape"
   width="300"
   height="50"
   id="svg4393"
   version="1.1"
   inkscape:version="0.48.4 r9939"
   sodipodi:docname="Butterfly_left.svg">
  <defs
     id="defs4395" />
  <sodipodi:namedview
     id="base"
     pagecolor="#ffffff"
     bordercolor="#666666"
     borderopacity="1.0"
     inkscape:pageopacity="0.0"
     inkscape:pageshadow="2"
     inkscape:zoom="3.6203867"
     inkscape:cx="173.46605"
     inkscape:cy="12.009867"
     inkscape:document-units="px"
     inkscape:current-layer="layer1"
     showgrid="false"
     inkscape:window-width="1920"
     inkscape:window-height="1138"
     inkscape:window-x="1912"
     inkscape:window-y="-8"
     inkscape:window-maximized="1" />
  <metadata
     id="metadata4398">
    <rdf:RDF>
      <cc:Work
         rdf:about="">
        <dc:format>image/svg+xml</dc:format>
        <dc:type
           rdf:resource="http://purl.org/dc/dcmitype/StillImage" />
        <dc:title></dc:title>
      </cc:Work>
    </rdf:RDF>
  </metadata>
  <g
     inkscape:label="Ebene 1"
     inkscape:groupmode="layer"
     id="layer1"
     transform="translate(0,-1002.3622)">
    <g
       transform="translate(-1.1427564,96)"
       id="g4141">
      <path
         style="fill:none;stroke:#000000;stroke-width:1.03770125px;stroke-linecap:butt;stroke-linejoin:miter;stroke-opacity:1"
         d="m 30.87081,926.519 c 0,0 19.8218,-18.61763 2.1033,-18.61763 -10.1715,0 -11.35786,14.79031 -11.35786,14.79031 0,0 -2.3982,-12.99005 -9.6151,-5.77341 -7.2171,7.21664 4.5672,9.92508 4.5672,9.92508"
         id="path4085"
         inkscape:connector-curvature="0"
         sodipodi:nodetypes="csczc" />
      <g
         id="use4111"
         transform="matrix(0,1,-1,0,900.36225,902.3622)">
        <path
           style="fill:none;stroke:#000000;stroke-width:3.33648729;stroke-linecap:round;stroke-linejoin:miter;stroke-miterlimit:4;stroke-opacity:1;stroke-dasharray:none"
           d="m 25.000244,886.69401 0,-18.4011"
           id="path4987"
           inkscape:connector-curvature="0"
           sodipodi:nodetypes="cc" />
        <path
           sodipodi:type="arc"
           style="fill:#000000;fill-opacity:1;stroke-width:4;stroke-linecap:round;stroke-miterlimit:4;stroke-dasharray:none"
           id="path4989"
           sodipodi:cx="53.790615"
           sodipodi:cy="12.815885"
           sodipodi:rx="3.0084236"
           sodipodi:ry="2.7677498"
           d="m 56.799039,12.815885 c 0,1.528586 -1.346917,2.767749 -3.008424,2.767749 -1.661506,0 -3.008423,-1.239163 -3.008423,-2.767749 0,-1.528586 1.346917,-2.76775 3.008423,-2.76775 1.661507,0 3.008424,1.239164 3.008424,2.76775 z"
           transform="matrix(0.83100001,0,0,0.90326084,-19.700002,854.01381)" />
      </g>
    </g>
    <g
       transform="translate(-1.1427564,100)"
       id="g4145">
      <use
         transform="matrix(1.0045073,0,0,0.74372806,51.958469,237.59433)"
         height="200"
         width="300"
         id="use4103"
         xlink:href="#path4085"
         y="0"
         x="0" />
      <use
         height="200"
         width="300"
         transform="translate(50,0)"
         id="use4113"
         xlink:href="#use4111"
         y="0"
         x="0" />
    </g>
    <g
       transform="translate(-1.1427564,104)"
       id="g4149">
      <use
         height="200"
         width="300"
         transform="matrix(1.0135179,0,0,0.24146501,99.873787,703.30529)"
         id="use4107"
         xlink:href="#path4085"
         y="0"
         x="0" />
      <use
         height="200"
         width="300"
         transform="translate(100,0)"
         id="use4119"
         xlink:href="#use4111"
         y="0"
         x="0" />
    </g>
    <g
       transform="translate(-1.1427564,107.99999)"
       id="g4153">
      <use
         height="200"
         width="300"
         transform="matrix(1,0,0,-0.38947049,150,1288.6392)"
         id="use4109"
         xlink:href="#path4085"
         y="0"
         x="0" />
      <use
         height="200"
         width="300"
         transform="translate(150,0)"
         id="use4121"
         xlink:href="#use4111"
         y="0"
         x="0" />
    </g>
    <use
       x="0"
       y="0"
       xlink:href="#g4149"
       id="use4169"
       transform="translate(99.99967,3e-7)"
       width="300"
       height="200" />
    <use
       x="0"
       y="0"
       xlink:href="#g4145"
       id="use4171"
       transform="translate(199.99984,3.150185e-7)"
       width="300"
       height="200" />
  </g>
</svg>
