<?xml version="1.0" encoding="UTF-8" standalone="no"?>
<!-- Created with Inkscape (http://www.inkscape.org/) -->

<svg
   xmlns:dc="http://purl.org/dc/elements/1.1/"
   xmlns:cc="http://creativecommons.org/ns#"
   xmlns:rdf="http://www.w3.org/1999/02/22-rdf-syntax-ns#"
   xmlns:svg="http://www.w3.org/2000/svg"
   xmlns="http://www.w3.org/2000/svg"
   xmlns:xlink="http://www.w3.org/1999/xlink"
   xmlns:sodipodi="http://sodipodi.sourceforge.net/DTD/sodipodi-0.dtd"
   xmlns:inkscape="http://www.inkscape.org/namespaces/inkscape"
   width="600"
   height="100"
   id="svg2"
   version="1.1"
   inkscape:version="0.48.4 r9939"
   sodipodi:docname="Butterfly_right.svg">
  <defs
     id="defs4" />
  <sodipodi:namedview
     id="base"
     pagecolor="#ffffff"
     bordercolor="#666666"
     borderopacity="1.0"
     inkscape:pageopacity="0.0"
     inkscape:pageshadow="2"
     inkscape:zoom="2.8284271"
     inkscape:cx="303.20693"
     inkscape:cy="76.710806"
     inkscape:document-units="px"
     inkscape:current-layer="layer1"
     showgrid="true"
     inkscape:window-width="1920"
     inkscape:window-height="1138"
     inkscape:window-x="1912"
     inkscape:window-y="-8"
     inkscape:window-maximized="1">
    <inkscape:grid
       type="xygrid"
       id="grid3915"
       empspacing="5"
       visible="true"
       enabled="true"
       snapvisiblegridlinesonly="true" />
  </sodipodi:namedview>
  <metadata
     id="metadata7">
    <rdf:RDF>
      <cc:Work
         rdf:about="">
        <dc:format>image/svg+xml</dc:format>
        <dc:type
           rdf:resource="http://purl.org/dc/dcmitype/StillImage" />
        <dc:title></dc:title>
      </cc:Work>
    </rdf:RDF>
  </metadata>
  <g
     inkscape:label="Ebene 1"
     inkscape:groupmode="layer"
     id="layer1"
     transform="translate(0,-952.36218)">
    <path
       id="path3905"
       d="m 27.077154,1000.2852 c -56.352584,-32.53522 -0.0111,-68.32052 25.00002,-25.00004 21.6106,-21.61059 73.322996,12.0519 25,25.00004 z"
       inkscape:connector-curvature="0"
       style="fill:#ffffff;stroke:#000000"
       sodipodi:nodetypes="cccc" />
    <g
       id="g3969"
       transform="matrix(0,1,1,0,-949.11218,849.11229)">
      <path
         inkscape:connector-curvature="0"
         id="path3907"
         d="m 149.9998,966.86187 0,71.00053"
         style="fill:none;stroke:#000000;stroke-width:6;stroke-linecap:round;stroke-linejoin:miter;stroke-miterlimit:4;stroke-opacity:1;stroke-dasharray:none" />
      <path
         transform="translate(0,947.36218)"
         d="m 155,15 c 0,2.761424 -2.23858,5 -5,5 -2.76142,0 -5,-2.238576 -5,-5 0,-2.761424 2.23858,-5 5,-5 2.76142,0 5,2.238576 5,5 z"
         sodipodi:ry="5"
         sodipodi:rx="5"
         sodipodi:cy="15"
         sodipodi:cx="150"
         id="path3917"
         style="fill:#000000;fill-opacity:1;stroke:none"
         sodipodi:type="arc" />
    </g>
    <use
       x="0"
       y="0"
       xlink:href="#path3905"
       id="use4021"
       width="600"
       height="100"
       transform="matrix(1,0,0,0.60002387,100,400.29019)" />
    <use
       x="0"
       y="0"
       xlink:href="#g3969"
       id="use4031"
       transform="translate(100,0)"
       width="600"
       height="100" />
    <use
       x="0"
       y="0"
       xlink:href="#path3905"
       id="use4023"
       transform="matrix(1,0,0,0.20005143,200,800.57669)"
       width="600"
       height="100" />
    <use
       x="0"
       y="0"
       xlink:href="#g3969"
       id="use4033"
       transform="translate(200,0)"
       width="600"
       height="100" />
    <use
       x="0"
       y="0"
       xlink:href="#path3905"
       id="use4025"
       transform="matrix(1,0,0,-0.20005143,300,1201.3431)"
       width="600"
       height="100" />
    <use
       x="0"
       y="0"
       xlink:href="#g3969"
       id="use4035"
       transform="translate(300,0)"
       width="600"
       height="100" />
    <use
       x="0"
       y="0"
       xlink:href="#path3905"
       id="use4027"
       transform="matrix(1,0,0,-0.60002387,400,1601.4549)"
       width="600"
       height="100" />
    <use
       x="0"
       y="0"
       xlink:href="#g3969"
       id="use4037"
       transform="translate(400,0)"
       width="600"
       height="100" />
    <use
       x="0"
       y="0"
       xlink:href="#path3905"
       id="use4029"
       transform="matrix(1,0,0,-1,500,2001.8672)"
       width="600"
       height="100" />
    <use
       x="0"
       y="0"
       xlink:href="#g3969"
       id="use4039"
       transform="translate(500,0)"
       width="600"
       height="100" />
  </g>
</svg>
